<svg id="Layer_1" data-name="Layer 1" xmlns="http://www.w3.org/2000/svg" viewBox="0 0 116 111"><defs><style>.cls-1,.cls-3{fill:#ea4949;}.cls-2,.cls-4,.cls-5{fill:none;}.cls-2,.cls-4{stroke:#ea4949;stroke-miterlimit:10;}.cls-2{stroke-width:0.51px;}.cls-3{opacity:0.5;}.cls-4{stroke-width:0.25px;}.cls-5{stroke:#fff;stroke-linecap:round;stroke-linejoin:round;stroke-width:4.79px;}</style></defs><title>Tran</title><ellipse class="cls-1" cx="61.54" cy="55.71" rx="37.97" ry="37.94"/><polygon class="cls-1" points="11.85 73.8 16.94 73.8 14.39 68.7 11.85 73.8"/><polygon class="cls-1" points="95.94 29.46 101.04 29.46 98.49 24.36 95.94 29.46"/><polygon class="cls-2" points="105.08 61.06 108.68 64.66 110.49 59.26 105.08 61.06"/><circle class="cls-1" cx="81.42" cy="98.01" r="1.27"/><circle class="cls-2" cx="77.08" cy="13.66" r="1.27"/><circle class="cls-3" cx="16.87" cy="39.37" r="1.77"/><circle class="cls-4" cx="13.37" cy="91.64" r="1.27"/><circle class="cls-3" cx="4.96" cy="39.4" r="3.96"/><circle class="cls-1" cx="19.24" cy="24.11" r="3.96"/><circle class="cls-1" cx="109.04" cy="88.33" r="3.96"/><circle class="cls-1" cx="99.25" cy="13.91" r="3.96"/><circle class="cls-1" cx="40.13" cy="100.56" r="3.96"/><line class="cls-5" x1="76.86" y1="42.17" x2="46.22" y2="72.81"/><line class="cls-5" x1="76.86" y1="72.81" x2="46.22" y2="42.17"/></svg>