<svg id="Layer_1" data-name="Layer 1" xmlns="http://www.w3.org/2000/svg" viewBox="0 0 116 111"><defs><style>.cls-1{fill:#39b54a;}.cls-2,.cls-4{fill:#58b660;}.cls-3,.cls-5,.cls-6{fill:none;}.cls-3,.cls-5{stroke:#58b660;stroke-miterlimit:10;}.cls-3{stroke-width:0.47px;}.cls-4{opacity:0.5;}.cls-5{stroke-width:0.23px;}.cls-6{stroke:#fff;stroke-linecap:round;stroke-linejoin:round;stroke-width:4.79px;}</style></defs><title>Tran</title><ellipse class="cls-1" cx="59.36" cy="53.76" rx="34.66" ry="34.63"/><polygon class="cls-2" points="14 70.28 18.66 70.28 16.33 65.63 14 70.28"/><polygon class="cls-2" points="90.76 29.81 95.41 29.81 93.09 25.16 90.76 29.81"/><polygon class="cls-3" points="99.1 58.65 102.39 61.94 104.04 57 99.1 58.65"/><polygon class="cls-4" points="25.17 101.21 29.12 97.26 23.2 95.29 25.17 101.21"/><circle class="cls-2" cx="77.5" cy="92.38" r="1.16"/><circle class="cls-3" cx="73.55" cy="15.39" r="1.16"/><circle class="cls-4" cx="18.59" cy="38.85" r="1.61"/><circle class="cls-5" cx="15.4" cy="86.56" r="1.16"/><circle class="cls-4" cx="7.72" cy="38.88" r="3.62"/><circle class="cls-2" cx="20.75" cy="24.92" r="3.62"/><circle class="cls-2" cx="107.28" cy="83.54" r="3.62"/><circle class="cls-2" cx="93.79" cy="15.62" r="3.62"/><circle class="cls-2" cx="39.82" cy="94.7" r="3.62"/><polyline class="cls-6" points="41.51 56.2 51.88 66.57 77.9 40.54"/></svg>